# xmcd
#
# Track frame offsets:
#	150
#	20992
#	39069
#	64116
#	100056
#	123011
#	147540
#	176254
#	194513
#	231800
#	255032
#	272607
#
# Disc length: 3800 seconds
#
# Revision: 0
# Processed by: cddbd v1.5PL3 Copyright (c) Steve Scherf et al.
# Submitted via: dBpowerAMP V4.0
#
DISCID=990ed60c
DTITLE=Lucky Peterson - I'm Ready
DYEAR=1900
DGENRE=Blues
TTITLE0=I'm Ready
TTITLE1=It Ain't Right
TTITLE2=You Shook Me
TTITLE3=Junk Yard
TTITLE4=Who's Been Talking
TTITLE5=I Lost Faith Last Nignt
TTITLE6=Tribute To The King
TTITLE7=On The Sea Of Love
TTITLE8=Nothing But Smoke
TTITLE9=Spankin' Leroy
TTITLE10=Don't Cloud Up On Me
TTITLE11=Precious Lord Take My Hand
EXTD=
EXTT0=
EXTT1=
EXTT2=
EXTT3=
EXTT4=
EXTT5=
EXTT6=
EXTT7=
EXTT8=
EXTT9=
EXTT10=
EXTT11=
PLAYORDER=
